<svg width="309" height="309" viewBox="0 0 309 309" fill="none" xmlns="http://www.w3.org/2000/svg">
<path d="M154.507 288.81C228.681 288.81 288.81 228.681 288.81 154.507C288.81 80.334 228.681 20.2046 154.507 20.2046C80.334 20.2046 20.2046 80.334 20.2046 154.507C20.2046 228.681 80.334 288.81 154.507 288.81Z" fill="#6C6C6C"/>
<path d="M154.507 302.62C236.308 302.62 302.62 236.308 302.62 154.508C302.62 72.7072 236.308 6.39478 154.507 6.39478C72.7069 6.39478 6.39453 72.7072 6.39453 154.508C6.39453 236.308 72.7069 302.62 154.507 302.62Z" stroke="#6C6C6C" stroke-width="8.5" stroke-miterlimit="10"/>
<path d="M154.507 19.5742V289.426" stroke="white" stroke-width="2.83" stroke-miterlimit="10"/>
<path d="M19.5742 154.508H289.426" stroke="white" stroke-width="2.83" stroke-miterlimit="10"/>
<path d="M59.0981 59.0981L249.917 249.917" stroke="white" stroke-width="2.83" stroke-miterlimit="10"/>
<path d="M59.0981 249.917L249.917 59.0981" stroke="white" stroke-width="2.83" stroke-miterlimit="10"/>
<path d="M154.508 264.823C215.433 264.823 264.823 215.433 264.823 154.507C264.823 93.582 215.433 44.1921 154.508 44.1921C93.5822 44.1921 44.1924 93.582 44.1924 154.507C44.1924 215.433 93.5822 264.823 154.508 264.823Z" fill="#6C6C6C"/>
</svg>
